<?xml version="1.0" standalone="no"?><!DOCTYPE svg PUBLIC "-//W3C//DTD SVG 1.1//EN" "http://www.w3.org/Graphics/SVG/1.1/DTD/svg11.dtd"><svg class="icon" height="512" viewBox="0 0 1024 1024" version="1.1" xmlns="http://www.w3.org/2000/svg"><path d="M998.4 268.8c-38.4-108.8-140.8-179.2-256-179.2-96 0-185.6 51.2-230.4 128-51.2-76.8-134.4-128-230.4-128-115.2 0-217.6 70.4-256 179.2C6.4 307.2 6.4 352 6.4 409.6c12.8 172.8 179.2 352 480 518.4 6.4 6.4 19.2 6.4 25.6 6.4 6.4 0 12.8 0 19.2-6.4 19.2-6.4 460.8-230.4 486.4-518.4C1017.6 352 1017.6 307.2 998.4 268.8zM940.8 403.2c-19.2 217.6-345.6 403.2-428.8 448-262.4-147.2-416-307.2-428.8-448C83.2 358.4 83.2 320 96 294.4c25.6-76.8 102.4-128 185.6-128 96 0 179.2 70.4 192 166.4 0 19.2 19.2 32 38.4 32 19.2 0 38.4-12.8 38.4-32 12.8-96 96-166.4 192-166.4 83.2 0 160 51.2 185.6 128C940.8 320 940.8 358.4 940.8 403.2z" /></svg>